<svg viewBox="-23 -21 682 682.66669" xmlns="http://www.w3.org/2000/svg"><path d="m617.679688 29.148438h-126.164063v-10.414063c0-10.34375-8.394531-18.734375-18.742187-18.734375-10.347657 0-18.734376 8.390625-18.734376 18.734375v10.414063h-271.488281v-10.414063c0-10.34375-8.394531-18.734375-18.742187-18.734375s-18.734375 8.390625-18.734375 18.734375v10.414063h-126.171875c-10.347656 0-18.734375 8.390624-18.734375 18.738281v62.460937c0 10.347656 8.386719 18.738282 18.734375 18.738282h7.914062v374.75c0 10.347656 8.390625 18.738281 18.734375 18.738281h254v22.15625c-21.226562 5.082031-37.054687 24.207031-37.054687 46.96875 0 26.628906 21.664062 48.300781 48.300781 48.300781h10.824219c26.636718 0 48.304687-21.671875 48.304687-48.300781 0-21.25-13.796875-39.320313-32.894531-45.769531v-23.355469h253.167969c10.347656 0 18.738281-8.390625 18.738281-18.738281v-374.75h8.742188c10.347656 0 18.742187-8.390626 18.742187-18.738282v-62.460937c-.003906-10.347657-8.394531-18.738281-18.742187-18.738281zm-296.058594 573.375h-10.824219c-5.972656 0-10.824219-4.859376-10.824219-10.824219 0-5.972657 4.851563-10.832031 10.824219-10.832031h10.824219c5.972656 0 10.832031 4.859374 10.832031 10.832031 0 5.964843-4.859375 10.824219-10.832031 10.824219zm-283.980469-535.898438h561.300781v24.984375h-561.300781zm533.820313 418.472656h-507.167969v-356.011718h507.167969zm0 0"/></svg>
