<?xml version="1.0" encoding="utf-8"?>
<!-- Svg Vector Icons : http://www.onlinewebfonts.com/icon -->
<!DOCTYPE svg PUBLIC "-//W3C//DTD SVG 1.1//EN" "http://www.w3.org/Graphics/SVG/1.1/DTD/svg11.dtd">
<svg version="1.1" xmlns="http://www.w3.org/2000/svg" xmlns:xlink="http://www.w3.org/1999/xlink" x="0px" y="0px" viewBox="0 0 1000 1000" enable-background="new 0 0 1000 1000" xml:space="preserve">
<metadata> Svg Vector Icons : http://www.onlinewebfonts.com/icon </metadata>
<g><path d="M920,10H80c-38.7,0-70,31.3-70,70v840c0,38.6,31.3,70,70,70h840c38.7,0,70-31.4,70-70V80C990,41.3,958.7,10,920,10z M957,891.8c0,36-29.2,65.3-65.3,65.3H108.2c-36.1,0-65.3-29.3-65.3-65.3V108.3c0-36.1,29.2-65.3,65.3-65.3h783.5c36.1,0,65.3,29.2,65.3,65.3V891.8z"/><path d="M402.8,189.3H169.7v233.2h233.2L402.8,189.3L402.8,189.3z M364,383.6H208.5V228.1H364V383.6z M522,383.3h308.3v-38.9H522V383.3z M522,227.8v38.9h308.3v-38.9H522z M169.7,577.6h660.7v-38.9H169.7V577.6z M169.7,694.2h660.7v-38.9H169.7V694.2z M169.7,810.7h660.7v-38.9H169.7V810.7z"/></g>
</svg>